<svg version="1.1" xmlns="http://www.w3.org/2000/svg" viewBox="0 0 65.72006850636359 78.91308937100649" width="65.72006850636359" height="78.91308937100649">
  <!-- svg-source:excalidraw -->
  
  <defs>
    <style class="style-fonts">
      @font-face {
        font-family: "Virgil";
        src: url("https://file%2B.vscode-resource.vscode-cdn.net/Users/anna/.vscode/extensions/pomdtr.excalidraw-editor-3.5.1/public//dist/excalidraw-assets/Virgil.woff2");
      }
      @font-face {
        font-family: "Cascadia";
        src: url("https://file%2B.vscode-resource.vscode-cdn.net/Users/anna/.vscode/extensions/pomdtr.excalidraw-editor-3.5.1/public//dist/excalidraw-assets/Cascadia.woff2");
      }
    </style>
  </defs>
  <rect x="0" y="0" width="65.72006850636359" height="78.91308937100649" fill="none"></rect><g stroke-linecap="round"><g transform="translate(11.924791432917118 11.136687777936459) rotate(0 20.935242820264676 28.319856907566788)" fill-rule="evenodd"><path d="M0.3 1.97 L38.56 -1.91 L44.6 56.09 L20.64 39.24 L6.02 57.84 L1.2 -1.87" stroke="none" stroke-width="0" fill="#d68c45" fill-rule="evenodd"></path><path d="M0.72 0.27 C12.9 0.57, 24.54 1.93, 38.09 1.04 M0.34 0.43 C8.29 0.58, 15.55 1.23, 36.47 0.02 M37.09 -1.14 C37.51 11.91, 38.57 24.22, 43.2 56.46 M37.37 0.66 C39.19 15.58, 39.23 32.18, 43.7 57.78 M43.8 55.97 C37.77 53.65, 31.6 49.12, 22.25 39.69 M42.47 57.24 C34.95 51.77, 27.14 43.62, 21.92 39.66 M19.93 40.32 C19.26 42.3, 16.28 48.31, 4.93 54.77 M22.05 38.76 C15.83 44.01, 11.48 51.24, 4.65 56.51 M4.73 55.38 C3.97 38.13, 0.37 24.17, -1.92 0.39 M6.35 56.81 C3.72 45.43, 3.56 33.13, -0.43 0.72 M0 0 C0 0, 0 0, 0 0 M0 0 C0 0, 0 0, 0 0" stroke="#000000" stroke-width="1" fill="none"></path></g></g><mask></mask></svg>