<svg version="1.1" xmlns="http://www.w3.org/2000/svg" viewBox="0 0 98 98" width="98" height="98">
  <!-- svg-source:excalidraw -->
  
  <defs>
    <style class="style-fonts">
      @font-face {
        font-family: "Virgil";
        src: url("https://file%2B.vscode-resource.vscode-cdn.net/Users/anna/.vscode/extensions/pomdtr.excalidraw-editor-3.5.1/public//dist/excalidraw-assets/Virgil.woff2");
      }
      @font-face {
        font-family: "Cascadia";
        src: url("https://file%2B.vscode-resource.vscode-cdn.net/Users/anna/.vscode/extensions/pomdtr.excalidraw-editor-3.5.1/public//dist/excalidraw-assets/Cascadia.woff2");
      }
    </style>
  </defs>
  <rect x="0" y="0" width="98" height="98" fill="none"></rect><g stroke-linecap="round" transform="translate(10 10) rotate(0 39 39)"><path d="M30.28 1 C37.46 -1.05, 47.48 0.84, 54.47 3.78 C61.46 6.72, 68.14 12.37, 72.21 18.63 C76.27 24.89, 79.39 33.67, 78.85 41.32 C78.31 48.97, 73.85 58.61, 68.96 64.55 C64.07 70.5, 56.84 75.06, 49.51 76.99 C42.17 78.92, 32.09 79, 24.93 76.14 C17.77 73.29, 10.8 66.6, 6.55 59.86 C2.3 53.12, -1.15 43.3, -0.56 35.72 C0.02 28.15, 4.41 20.17, 10.07 14.42 C15.74 8.67, 29.1 3.62, 33.44 1.21 C37.77 -1.19, 36.17 -0.42, 36.06 -0.02 M50.79 0.86 C57.99 2.45, 65.42 10.31, 70.01 16.66 C74.6 23.01, 78.16 31.59, 78.32 38.98 C78.49 46.37, 75.21 54.87, 70.99 61 C66.78 67.14, 60.1 73.09, 53.04 75.8 C45.97 78.5, 36.34 79.42, 28.61 77.24 C20.88 75.05, 11.45 68.96, 6.64 62.69 C1.84 56.42, -0.1 47.54, -0.23 39.63 C-0.36 31.71, 1.26 21.39, 5.86 15.18 C10.46 8.98, 19.89 4.52, 27.36 2.38 C34.83 0.24, 46.99 2.46, 50.69 2.33 C54.4 2.2, 49.69 1.12, 49.61 1.6" stroke="none" stroke-width="0" fill="#868e96"></path><path d="M47.4 0.8 C54.38 1.72, 61.56 7.6, 66.67 13.09 C71.78 18.58, 76.9 26.38, 78.05 33.73 C79.2 41.08, 77.24 50.4, 73.56 57.19 C69.88 63.99, 62.81 70.99, 55.97 74.48 C49.14 77.98, 40.08 79.52, 32.54 78.18 C25.01 76.84, 16.31 72.29, 10.78 66.45 C5.25 60.61, 0.26 50.94, -0.65 43.14 C-1.55 35.35, 1.38 26.29, 5.38 19.68 C9.37 13.07, 16.12 6.64, 23.31 3.49 C30.5 0.34, 43.86 0.83, 48.52 0.79 C53.18 0.75, 51.41 2.39, 51.29 3.26 M51.22 2.52 C57.86 4.71, 65.77 11.41, 70.13 17.65 C74.48 23.89, 77.45 32.29, 77.37 39.94 C77.28 47.58, 74.32 57.21, 69.61 63.52 C64.91 69.84, 56.56 76.01, 49.13 77.83 C41.71 79.64, 32.09 77.13, 25.06 74.42 C18.02 71.7, 11 67.68, 6.92 61.56 C2.84 55.43, 0.41 45.64, 0.56 37.66 C0.7 29.69, 3.24 19.75, 7.79 13.71 C12.34 7.67, 20.48 3.45, 27.85 1.42 C35.22 -0.6, 47.89 1.22, 52.03 1.54 C56.17 1.85, 53.07 2.56, 52.68 3.33" stroke="#000000" stroke-width="1" fill="none"></path></g><g stroke-linecap="round" transform="translate(23.77142857142826 44.94223602484476) rotate(0 25.5 4.021739130434753)"><path d="M2.23 1.98 L47.49 0.77 L51.68 1.35 L52.91 6.21 L47.28 9.42 L2.69 6.99 L0.9 4.6 L1.49 0.78 L3.99 1.79" stroke="none" stroke-width="0" fill="#ffc9b9"></path><path d="M2.01 0 M2.01 0 C16.33 1.41, 32.26 2.01, 48.99 0 M2.01 0 C15.42 0.72, 28.5 1.15, 48.99 0 M48.99 0 C51.71 1.49, 49.92 -0.58, 51 2.01 M48.99 0 C50.68 -1.69, 51.94 -0.27, 51 2.01 M51 2.01 C50.78 3.53, 50.79 3.95, 51 6.03 M51 2.01 C50.99 3.21, 50.82 4.47, 51 6.03 M51 6.03 C50.82 7.2, 49.33 9.08, 48.99 8.04 M51 6.03 C51.48 5.57, 50.72 8.29, 48.99 8.04 M48.99 8.04 C35.78 9.29, 24 9.58, 2.01 8.04 M48.99 8.04 C31.28 7.89, 11.73 8.76, 2.01 8.04 M2.01 8.04 C2.66 8.38, 0.93 9.28, 0 6.03 M2.01 8.04 C2.01 8.33, -1.5 5.92, 0 6.03 M0 6.03 C0.29 4.17, -0.37 2.46, 0 2.01 M0 6.03 C0.15 5.17, -0.14 4.19, 0 2.01 M0 2.01 C1.49 1.11, 1.53 0.07, 2.01 0 M0 2.01 C-0.58 2.74, 0.54 1.57, 2.01 0" stroke="#000000" stroke-width="1" fill="none"></path></g><g stroke-linecap="round" transform="translate(24.04968944099346 46.69875776397521) rotate(89.99999999999994 25.5 3.5869565217391255)"><path d="M3.78 -1.5 L49.97 1.18 L51.4 2.35 L51.18 3.67 L50.58 7.86 L0.74 8.07 L-1.43 6.37 L0.72 2.43 L3.58 0.61" stroke="none" stroke-width="0" fill="#ffc9b9"></path><path d="M1.79 0 M1.79 0 C21.03 -0.54, 39.9 -0.04, 49.21 0 M1.79 0 C14.35 -0.22, 26.86 0.65, 49.21 0 M49.21 0 C51.89 -1.08, 49.75 0.91, 51 1.79 M49.21 0 C48.71 0.94, 50.06 0.23, 51 1.79 M51 1.79 C51.35 2.63, 50.71 3.87, 51 5.38 M51 1.79 C50.97 2.84, 50.99 4.21, 51 5.38 M51 5.38 C50.82 5.57, 51.44 7.59, 49.21 7.17 M51 5.38 C49.19 6.96, 50.65 6.3, 49.21 7.17 M49.21 7.17 C38.9 6.6, 27.3 8.9, 1.79 7.17 M49.21 7.17 C33.84 7.66, 19.66 8.62, 1.79 7.17 M1.79 7.17 C0.93 8.1, 1.9 7.74, 0 5.38 M1.79 7.17 C0.89 5.67, -1.45 8.87, 0 5.38 M0 5.38 C-0.24 3.84, -0.33 2.66, 0 1.79 M0 5.38 C0.06 3.99, 0 2.94, 0 1.79 M0 1.79 C0.44 1.46, 0.67 -0.5, 1.79 0 M0 1.79 C2.07 0.47, 2.17 1.45, 1.79 0" stroke="#000000" stroke-width="1" fill="none"></path></g><g stroke-linecap="round" transform="translate(41.84266144814069 46.87749031550766) rotate(0 7.075342465753238 2.6810053877170503)"><path d="M1.34 0 L13.82 0.34 L13.82 5.03 L0.34 5.03 L0 1.34 L1.34 0" stroke="none" stroke-width="0" fill="#ffc9b9"></path><path d="M1.34 0 M1.34 0 C4.05 0, 6.76 0, 12.81 0 M1.34 0 C4.49 0, 7.64 0, 12.81 0 M12.81 0 C13.7 0, 14.15 0.45, 14.15 1.34 M12.81 0 C13.7 0, 14.15 0.45, 14.15 1.34 M14.15 1.34 C14.15 2.17, 14.15 2.99, 14.15 4.02 M14.15 1.34 C14.15 1.91, 14.15 2.47, 14.15 4.02 M14.15 4.02 C14.15 4.92, 13.7 5.36, 12.81 5.36 M14.15 4.02 C14.15 4.92, 13.7 5.36, 12.81 5.36 M12.81 5.36 C8.41 5.36, 4.02 5.36, 1.34 5.36 M12.81 5.36 C10.08 5.36, 7.35 5.36, 1.34 5.36 M1.34 5.36 C0.45 5.36, 0 4.92, 0 4.02 M1.34 5.36 C0.45 5.36, 0 4.92, 0 4.02 M0 4.02 C0 3.42, 0 2.82, 0 1.34 M0 4.02 C0 3.31, 0 2.6, 0 1.34 M0 1.34 C0 0.45, 0.45 0, 1.34 0 M0 1.34 C0 0.45, 0.45 0, 1.34 0" stroke="#ffc9b9" stroke-width="1" fill="none"></path></g></svg>